name Walk9.mot
datacolumns 19
datarows 12
range 2.40000000 2.41100000
endheader

                time	   L_ground_force_vx	   L_ground_force_vy	   L_ground_force_vz	   L_ground_force_px	   L_ground_force_py	   L_ground_force_pz	   R_ground_force_vx	   R_ground_force_vy	   R_ground_force_vz	   R_ground_force_px	   R_ground_force_py	   R_ground_force_pz	   L_ground_torque_x	   L_ground_torque_y	   L_ground_torque_z	   R_ground_torque_x	   R_ground_torque_y	   R_ground_torque_z	
          2.40000000	          0.00000000	          0.00000000	          0.00000000	          0.00000000	          0.00000000	          0.00000000	          0.00000000	          0.00000000	          0.00000000	          0.00000000	          0.00000000	          0.00000000	          0.00000000	          0.00000000	          0.00000000	          0.00000000	          0.00000000	          0.00000000	
          2.40100000	          0.00000000	          0.00000000	          0.00000000	          0.00000000	          0.00000000	          0.00000000	          0.00000000	          0.00000000	          0.00000000	          0.00000000	          0.00000000	          0.00000000	          0.00000000	          0.00000000	          0.00000000	          0.00000000	          0.00000000	          0.00000000	
          2.40200000	          0.00000000	          0.00000000	          0.00000000	          0.00000000	          0.00000000	          0.00000000	          0.00000000	          0.00000000	          0.00000000	          0.00000000	          0.00000000	          0.00000000	          0.00000000	          0.00000000	          0.00000000	          0.00000000	          0.00000000	          0.00000000	
          2.40300000	          0.00000000	          0.00000000	          0.00000000	          0.00000000	          0.00000000	          0.00000000	          0.00000000	          0.00000000	          0.00000000	          0.00000000	          0.00000000	          0.00000000	          0.00000000	          0.00000000	          0.00000000	          0.00000000	          0.00000000	          0.00000000	
          2.40400000	          0.00000000	          0.00000000	          0.00000000	          0.00000000	          0.00000000	          0.00000000	          0.00000000	          0.00000000	          0.00000000	          0.00000000	          0.00000000	          0.00000000	          0.00000000	          0.00000000	          0.00000000	          0.00000000	          0.00000000	          0.00000000	
          2.40500000	         -1.91750654	         14.64446431	         -4.22983569	         -0.35949876	          0.00000000	         -0.03621080	          0.00000000	          0.00000000	          0.00000000	          0.00000000	          0.00000000	          0.00000000	          0.00000000	          0.02689355	          0.00000000	          0.00000000	          0.00000000	          0.00000000	
          2.40600000	         -2.38677999	         23.62720254	         -6.09941507	         -0.35706119	          0.00000000	         -0.03565203	          0.00000000	          0.00000000	          0.00000000	          0.00000000	          0.00000000	          0.00000000	          0.00000000	          0.03004511	          0.00000000	          0.00000000	          0.00000000	          0.00000000	
          2.40700000	         -2.61936853	         34.26032924	         -7.95795601	         -0.35462586	          0.00000000	         -0.03580884	          0.00000000	          0.00000000	          0.00000000	          0.00000000	          0.00000000	          0.00000000	          0.00000000	          0.03040262	          0.00000000	          0.00000000	          0.00000000	          0.00000000	
          2.40800000	         -2.58266104	         46.40730940	         -9.75655525	         -0.35219525	          0.00000000	         -0.03632744	          0.00000000	          0.00000000	          0.00000000	          0.00000000	          0.00000000	          0.00000000	          0.00000000	          0.02896735	          0.00000000	          0.00000000	          0.00000000	          0.00000000	
          2.40900000	         -2.25876791	         59.97256623	        -11.50492735	         -0.35005926	          0.00000000	         -0.03692433	          0.00000000	          0.00000000	          0.00000000	          0.00000000	          0.00000000	          0.00000000	          0.00000000	          0.02759999	          0.00000000	          0.00000000	          0.00000000	          0.00000000	
          2.41000000	         -1.60723709	         74.69182611	        -13.18432596	         -0.34848275	          0.00000000	         -0.03754491	          0.00000000	          0.00000000	          0.00000000	          0.00000000	          0.00000000	          0.00000000	          0.00000000	          0.02890770	          0.00000000	          0.00000000	          0.00000000	          0.00000000	
          2.41100000	         -0.58222255	         90.03753806	        -14.72610377	         -0.34750290	          0.00000000	         -0.03824574	          0.00000000	          0.00000000	          0.00000000	          0.00000000	          0.00000000	          0.00000000	          0.00000000	          0.03539136	          0.00000000	          0.00000000	          0.00000000	          0.00000000	
